%TF.GenerationSoftware,KiCad,Pcbnew,8.0.7-8.0.7-0~ubuntu24.04.1*%
%TF.CreationDate,2024-12-30T16:45:39-05:00*%
%TF.ProjectId,NAK100,4e414b31-3030-42e6-9b69-6361645f7063,rev?*%
%TF.SameCoordinates,Original*%
%TF.FileFunction,Paste,Top*%
%TF.FilePolarity,Positive*%
%FSLAX46Y46*%
G04 Gerber Fmt 4.6, Leading zero omitted, Abs format (unit mm)*
G04 Created by KiCad (PCBNEW 8.0.7-8.0.7-0~ubuntu24.04.1) date 2024-12-30 16:45:39*
%MOMM*%
%LPD*%
G01*
G04 APERTURE LIST*
G04 Aperture macros list*
%AMRoundRect*
0 Rectangle with rounded corners*
0 $1 Rounding radius*
0 $2 $3 $4 $5 $6 $7 $8 $9 X,Y pos of 4 corners*
0 Add a 4 corners polygon primitive as box body*
4,1,4,$2,$3,$4,$5,$6,$7,$8,$9,$2,$3,0*
0 Add four circle primitives for the rounded corners*
1,1,$1+$1,$2,$3*
1,1,$1+$1,$4,$5*
1,1,$1+$1,$6,$7*
1,1,$1+$1,$8,$9*
0 Add four rect primitives between the rounded corners*
20,1,$1+$1,$2,$3,$4,$5,0*
20,1,$1+$1,$4,$5,$6,$7,0*
20,1,$1+$1,$6,$7,$8,$9,0*
20,1,$1+$1,$8,$9,$2,$3,0*%
G04 Aperture macros list end*
%ADD10RoundRect,0.150000X-0.587500X-0.150000X0.587500X-0.150000X0.587500X0.150000X-0.587500X0.150000X0*%
%ADD11R,1.750000X0.450000*%
%ADD12RoundRect,0.135000X-0.185000X0.135000X-0.185000X-0.135000X0.185000X-0.135000X0.185000X0.135000X0*%
G04 APERTURE END LIST*
D10*
%TO.C,U26*%
X229457500Y-137250000D03*
X227582500Y-138200000D03*
X227582500Y-136300000D03*
%TD*%
%TO.C,U98*%
X494282500Y-193450000D03*
X494282500Y-195350000D03*
X496157500Y-194400000D03*
%TD*%
%TO.C,U78*%
X279970000Y-174400000D03*
X279970000Y-176300000D03*
X281845000Y-175350000D03*
%TD*%
%TO.C,U84*%
X432370000Y-136300000D03*
X432370000Y-138200000D03*
X434245000Y-137250000D03*
%TD*%
%TO.C,U5*%
X124682501Y-118200000D03*
X122807500Y-119150000D03*
X122807500Y-117250000D03*
%TD*%
%TO.C,U14*%
X112776251Y-156300000D03*
X110901250Y-157250000D03*
X110901250Y-155350000D03*
%TD*%
%TO.C,U30*%
X265682500Y-88675000D03*
X265682500Y-90575000D03*
X267557500Y-89625000D03*
%TD*%
%TO.C,U41*%
X289495000Y-155350000D03*
X289495000Y-157250000D03*
X291370000Y-156300000D03*
%TD*%
%TO.C,U70*%
X203770000Y-174400000D03*
X203770000Y-176300000D03*
X205645000Y-175350000D03*
%TD*%
%TO.C,U21*%
X200882500Y-89625000D03*
X199007500Y-90575000D03*
X199007500Y-88675000D03*
%TD*%
%TO.C,U39*%
X284732500Y-136300000D03*
X284732500Y-138200000D03*
X286607500Y-137250000D03*
%TD*%
%TO.C,U88*%
X394270000Y-193450000D03*
X394270000Y-195350000D03*
X396145000Y-194400000D03*
%TD*%
%TO.C,U87*%
X413320000Y-174400000D03*
X413320000Y-176300000D03*
X415195000Y-175350000D03*
%TD*%
%TO.C,U37*%
X265682500Y-136300000D03*
X265682500Y-138200000D03*
X267557500Y-137250000D03*
%TD*%
%TO.C,U103*%
X475232500Y-155350000D03*
X475232500Y-157250000D03*
X477107500Y-156300000D03*
%TD*%
%TO.C,U6*%
X143732501Y-118200000D03*
X141857500Y-119150000D03*
X141857500Y-117250000D03*
%TD*%
%TO.C,U4*%
X105632501Y-118200000D03*
X103757500Y-119150000D03*
X103757500Y-117250000D03*
%TD*%
%TO.C,U49*%
X513332500Y-145825000D03*
X513332500Y-147725000D03*
X515207500Y-146775000D03*
%TD*%
%TO.C,U82*%
X432370000Y-88675000D03*
X432370000Y-90575000D03*
X434245000Y-89625000D03*
%TD*%
%TO.C,U9*%
X162782501Y-89625000D03*
X160907500Y-90575000D03*
X160907500Y-88675000D03*
%TD*%
%TO.C,U71*%
X106138750Y-193450000D03*
X106138750Y-195350000D03*
X108013750Y-194400000D03*
%TD*%
%TO.C,U56*%
X358551250Y-155350000D03*
X358551250Y-157250000D03*
X360426250Y-156300000D03*
%TD*%
%TO.C,U76*%
X241870000Y-174400000D03*
X241870000Y-176300000D03*
X243745000Y-175350000D03*
%TD*%
%TO.C,U90*%
X432370000Y-193450000D03*
X432370000Y-195350000D03*
X434245000Y-194400000D03*
%TD*%
%TO.C,U50*%
X332357500Y-88675000D03*
X332357500Y-90575000D03*
X334232500Y-89625000D03*
%TD*%
%TO.C,U72*%
X129951250Y-193450000D03*
X129951250Y-195350000D03*
X131826250Y-194400000D03*
%TD*%
%TO.C,U46*%
X322832500Y-136300000D03*
X322832500Y-138200000D03*
X324707500Y-137250000D03*
%TD*%
%TO.C,U36*%
X284732500Y-88675000D03*
X284732500Y-90575000D03*
X286607500Y-89625000D03*
%TD*%
D11*
%TO.C,AM6*%
X482420000Y-143018750D03*
X482420000Y-143668750D03*
X482420000Y-144318750D03*
X482420000Y-144968750D03*
X482420000Y-145618750D03*
X482420000Y-146268750D03*
X482420000Y-146918750D03*
X482420000Y-147568750D03*
X482420000Y-148218750D03*
X482420000Y-148868750D03*
X482420000Y-149518750D03*
X482420000Y-150168750D03*
X489620000Y-150168750D03*
X489620000Y-149518750D03*
X489620000Y-148868750D03*
X489620000Y-148218750D03*
X489620000Y-147568750D03*
X489620000Y-146918750D03*
X489620000Y-146268750D03*
X489620000Y-145618750D03*
X489620000Y-144968750D03*
X489620000Y-144318750D03*
X489620000Y-143668750D03*
X489620000Y-143018750D03*
%TD*%
D10*
%TO.C,U104*%
X494282500Y-155350000D03*
X494282500Y-157250000D03*
X496157500Y-156300000D03*
%TD*%
%TO.C,U80*%
X296638750Y-193450000D03*
X296638750Y-195350000D03*
X298513750Y-194400000D03*
%TD*%
%TO.C,U38*%
X270445000Y-155350000D03*
X270445000Y-157250000D03*
X272320000Y-156300000D03*
%TD*%
D11*
%TO.C,AM1*%
X222570000Y-123593750D03*
X222570000Y-124243750D03*
X222570000Y-124893750D03*
X222570000Y-125543750D03*
X222570000Y-126193750D03*
X222570000Y-126843750D03*
X222570000Y-127493750D03*
X222570000Y-128143750D03*
X222570000Y-128793750D03*
X222570000Y-129443750D03*
X222570000Y-130093750D03*
X222570000Y-130743750D03*
X215370000Y-130743750D03*
X215370000Y-130093750D03*
X215370000Y-129443750D03*
X215370000Y-128793750D03*
X215370000Y-128143750D03*
X215370000Y-127493750D03*
X215370000Y-126843750D03*
X215370000Y-126193750D03*
X215370000Y-125543750D03*
X215370000Y-124893750D03*
X215370000Y-124243750D03*
X215370000Y-123593750D03*
%TD*%
D10*
%TO.C,U7*%
X105632501Y-89625000D03*
X103757500Y-90575000D03*
X103757500Y-88675000D03*
%TD*%
%TO.C,U10*%
X181832501Y-89625000D03*
X179957500Y-90575000D03*
X179957500Y-88675000D03*
%TD*%
%TO.C,U22*%
X219932500Y-118200000D03*
X218057500Y-119150000D03*
X218057500Y-117250000D03*
%TD*%
%TO.C,U85*%
X344263750Y-193450000D03*
X344263750Y-195350000D03*
X346138750Y-194400000D03*
%TD*%
%TO.C,U74*%
X225201250Y-193450000D03*
X225201250Y-195350000D03*
X227076250Y-194400000D03*
%TD*%
%TO.C,U91*%
X456182500Y-117250000D03*
X456182500Y-119150000D03*
X458057500Y-118200000D03*
%TD*%
%TO.C,U59*%
X413320000Y-88675000D03*
X413320000Y-90575000D03*
X415195000Y-89625000D03*
%TD*%
%TO.C,U34*%
X258032500Y-118200000D03*
X256157500Y-119150000D03*
X256157500Y-117250000D03*
%TD*%
%TO.C,U23*%
X200882500Y-118200000D03*
X199007500Y-119150000D03*
X199007500Y-117250000D03*
%TD*%
%TO.C,U35*%
X275207500Y-117250000D03*
X275207500Y-119150000D03*
X277082500Y-118200000D03*
%TD*%
%TO.C,U16*%
X158020001Y-156300000D03*
X156145000Y-157250000D03*
X156145000Y-155350000D03*
%TD*%
%TO.C,U12*%
X138970001Y-156300000D03*
X137095000Y-157250000D03*
X137095000Y-155350000D03*
%TD*%
%TO.C,U64*%
X318070000Y-174400000D03*
X318070000Y-176300000D03*
X319945000Y-175350000D03*
%TD*%
%TO.C,U66*%
X115663750Y-174400000D03*
X115663750Y-176300000D03*
X117538750Y-175350000D03*
%TD*%
D11*
%TO.C,AM4*%
X203420000Y-189718750D03*
X203420000Y-190368750D03*
X203420000Y-191018750D03*
X203420000Y-191668750D03*
X203420000Y-192318750D03*
X203420000Y-192968750D03*
X203420000Y-193618750D03*
X203420000Y-194268750D03*
X203420000Y-194918750D03*
X203420000Y-195568750D03*
X203420000Y-196218750D03*
X203420000Y-196868750D03*
X210620000Y-196868750D03*
X210620000Y-196218750D03*
X210620000Y-195568750D03*
X210620000Y-194918750D03*
X210620000Y-194268750D03*
X210620000Y-193618750D03*
X210620000Y-192968750D03*
X210620000Y-192318750D03*
X210620000Y-191668750D03*
X210620000Y-191018750D03*
X210620000Y-190368750D03*
X210620000Y-189718750D03*
%TD*%
D10*
%TO.C,U44*%
X313307500Y-117250000D03*
X313307500Y-119150000D03*
X315182500Y-118200000D03*
%TD*%
%TO.C,U96*%
X368076250Y-193450000D03*
X368076250Y-195350000D03*
X369951250Y-194400000D03*
%TD*%
%TO.C,U99*%
X456182500Y-174400000D03*
X456182500Y-176300000D03*
X458057500Y-175350000D03*
%TD*%
D11*
%TO.C,AM5*%
X400700000Y-159325000D03*
X400700000Y-159975000D03*
X400700000Y-160625000D03*
X400700000Y-161275000D03*
X400700000Y-161925000D03*
X400700000Y-162575000D03*
X400700000Y-163225000D03*
X400700000Y-163875000D03*
X400700000Y-164525000D03*
X400700000Y-165175000D03*
X400700000Y-165825000D03*
X400700000Y-166475000D03*
X393500000Y-166475000D03*
X393500000Y-165825000D03*
X393500000Y-165175000D03*
X393500000Y-164525000D03*
X393500000Y-163875000D03*
X393500000Y-163225000D03*
X393500000Y-162575000D03*
X393500000Y-161925000D03*
X393500000Y-161275000D03*
X393500000Y-160625000D03*
X393500000Y-159975000D03*
X393500000Y-159325000D03*
%TD*%
D10*
%TO.C,U17*%
X475232500Y-136300000D03*
X475232500Y-138200000D03*
X477107500Y-137250000D03*
%TD*%
%TO.C,U13*%
X172307501Y-137250000D03*
X170432500Y-138200000D03*
X170432500Y-136300000D03*
%TD*%
%TO.C,U97*%
X238982500Y-118200000D03*
X237107500Y-119150000D03*
X237107500Y-117250000D03*
%TD*%
%TO.C,U19*%
X191357500Y-137250000D03*
X189482500Y-138200000D03*
X189482500Y-136300000D03*
%TD*%
%TO.C,U57*%
X394270000Y-88675000D03*
X394270000Y-90575000D03*
X396145000Y-89625000D03*
%TD*%
%TO.C,U11*%
X162782501Y-118200000D03*
X160907500Y-119150000D03*
X160907500Y-117250000D03*
%TD*%
%TO.C,U83*%
X432370000Y-117250000D03*
X432370000Y-119150000D03*
X434245000Y-118200000D03*
%TD*%
%TO.C,U101*%
X494282500Y-174400000D03*
X494282500Y-176300000D03*
X496157500Y-175350000D03*
%TD*%
%TO.C,U93*%
X494282500Y-117250000D03*
X494282500Y-119150000D03*
X496157500Y-118200000D03*
%TD*%
%TO.C,U45*%
X303782500Y-136300000D03*
X303782500Y-138200000D03*
X305657500Y-137250000D03*
%TD*%
%TO.C,U62*%
X413320000Y-136300000D03*
X413320000Y-138200000D03*
X415195000Y-137250000D03*
%TD*%
%TO.C,U8*%
X143732501Y-89625000D03*
X141857500Y-90575000D03*
X141857500Y-88675000D03*
%TD*%
%TO.C,U89*%
X413320000Y-193450000D03*
X413320000Y-195350000D03*
X415195000Y-194400000D03*
%TD*%
%TO.C,U61*%
X413320000Y-117250000D03*
X413320000Y-119150000D03*
X415195000Y-118200000D03*
%TD*%
%TO.C,U40*%
X294257500Y-117250000D03*
X294257500Y-119150000D03*
X296132500Y-118200000D03*
%TD*%
%TO.C,U52*%
X370457500Y-88675000D03*
X370457500Y-90575000D03*
X372332500Y-89625000D03*
%TD*%
%TO.C,U28*%
X229457500Y-89625000D03*
X227582500Y-90575000D03*
X227582500Y-88675000D03*
%TD*%
%TO.C,U69*%
X184720000Y-174400000D03*
X184720000Y-176300000D03*
X186595000Y-175350000D03*
%TD*%
%TO.C,U86*%
X320451250Y-193450000D03*
X320451250Y-195350000D03*
X322326250Y-194400000D03*
%TD*%
%TO.C,U2*%
X134207501Y-137250000D03*
X132332500Y-138200000D03*
X132332500Y-136300000D03*
%TD*%
%TO.C,U73*%
X153763750Y-193450000D03*
X153763750Y-195350000D03*
X155638750Y-194400000D03*
%TD*%
%TO.C,U43*%
X313307500Y-88675000D03*
X313307500Y-90575000D03*
X315182500Y-89625000D03*
%TD*%
%TO.C,U47*%
X326657500Y-155350000D03*
X326657500Y-157250000D03*
X328532500Y-156300000D03*
%TD*%
%TO.C,U65*%
X513682500Y-184018750D03*
X513682500Y-185918750D03*
X515557500Y-184968750D03*
%TD*%
%TO.C,U105*%
X456182500Y-136300000D03*
X456182500Y-138200000D03*
X458057500Y-137250000D03*
%TD*%
%TO.C,U102*%
X456182500Y-155350000D03*
X456182500Y-157250000D03*
X458057500Y-156300000D03*
%TD*%
%TO.C,U94*%
X513332500Y-117250000D03*
X513332500Y-119150000D03*
X515207500Y-118200000D03*
%TD*%
%TO.C,U24*%
X196120000Y-156300000D03*
X194245000Y-157250000D03*
X194245000Y-155350000D03*
%TD*%
D12*
%TO.C,R2*%
X464400000Y-76555000D03*
X464400000Y-77575000D03*
%TD*%
D10*
%TO.C,U79*%
X299020000Y-174400000D03*
X299020000Y-176300000D03*
X300895000Y-175350000D03*
%TD*%
%TO.C,U15*%
X153257501Y-137250000D03*
X151382500Y-138200000D03*
X151382500Y-136300000D03*
%TD*%
D12*
%TO.C,R1*%
X466940000Y-77575000D03*
X466940000Y-76555000D03*
%TD*%
D10*
%TO.C,U31*%
X253270000Y-156300000D03*
X251395000Y-157250000D03*
X251395000Y-155350000D03*
%TD*%
%TO.C,U20*%
X181832500Y-118200000D03*
X179957500Y-119150000D03*
X179957500Y-117250000D03*
%TD*%
%TO.C,U60*%
X394270000Y-136300000D03*
X394270000Y-138200000D03*
X396145000Y-137250000D03*
%TD*%
%TO.C,U100*%
X475232500Y-174400000D03*
X475232500Y-176300000D03*
X477107500Y-175350000D03*
%TD*%
%TO.C,U51*%
X351407500Y-88675000D03*
X351407500Y-90575000D03*
X353282500Y-89625000D03*
%TD*%
%TO.C,U58*%
X394270000Y-117250000D03*
X394270000Y-119150000D03*
X396145000Y-118200000D03*
%TD*%
%TO.C,U95*%
X465707500Y-193450000D03*
X465707500Y-195350000D03*
X467582500Y-194400000D03*
%TD*%
%TO.C,U53*%
X360932500Y-117250000D03*
X360932500Y-119150000D03*
X362807500Y-118200000D03*
%TD*%
%TO.C,U33*%
X494370000Y-136268750D03*
X494370000Y-138168750D03*
X496245000Y-137218750D03*
%TD*%
%TO.C,U32*%
X234220000Y-156300000D03*
X232345000Y-157250000D03*
X232345000Y-155350000D03*
%TD*%
%TO.C,U55*%
X365695000Y-136300000D03*
X365695000Y-138200000D03*
X367570000Y-137250000D03*
%TD*%
%TO.C,U67*%
X146620000Y-174400000D03*
X146620000Y-176300000D03*
X148495000Y-175350000D03*
%TD*%
%TO.C,U27*%
X248507500Y-137250000D03*
X246632500Y-138200000D03*
X246632500Y-136300000D03*
%TD*%
%TO.C,U18*%
X210407500Y-137250000D03*
X208532500Y-138200000D03*
X208532500Y-136300000D03*
%TD*%
%TO.C,U92*%
X475232500Y-117250000D03*
X475232500Y-119150000D03*
X477107500Y-118200000D03*
%TD*%
%TO.C,U68*%
X165670000Y-174400000D03*
X165670000Y-176300000D03*
X167545000Y-175350000D03*
%TD*%
%TO.C,U63*%
X353788750Y-174400000D03*
X353788750Y-176300000D03*
X355663750Y-175350000D03*
%TD*%
%TO.C,U81*%
X177070000Y-156300000D03*
X175195000Y-157250000D03*
X175195000Y-155350000D03*
%TD*%
D11*
%TO.C,AM3*%
X378420000Y-124768750D03*
X378420000Y-125418750D03*
X378420000Y-126068750D03*
X378420000Y-126718750D03*
X378420000Y-127368750D03*
X378420000Y-128018750D03*
X378420000Y-128668750D03*
X378420000Y-129318750D03*
X378420000Y-129968750D03*
X378420000Y-130618750D03*
X378420000Y-131268750D03*
X378420000Y-131918750D03*
X385620000Y-131918750D03*
X385620000Y-131268750D03*
X385620000Y-130618750D03*
X385620000Y-129968750D03*
X385620000Y-129318750D03*
X385620000Y-128668750D03*
X385620000Y-128018750D03*
X385620000Y-127368750D03*
X385620000Y-126718750D03*
X385620000Y-126068750D03*
X385620000Y-125418750D03*
X385620000Y-124768750D03*
%TD*%
D10*
%TO.C,U25*%
X215170000Y-156300000D03*
X213295000Y-157250000D03*
X213295000Y-155350000D03*
%TD*%
%TO.C,U48*%
X332357500Y-117250000D03*
X332357500Y-119150000D03*
X334232500Y-118200000D03*
%TD*%
%TO.C,U3*%
X110395001Y-137250000D03*
X108520000Y-138200000D03*
X108520000Y-136300000D03*
%TD*%
D11*
%TO.C,AM2*%
X283270000Y-123593750D03*
X283270000Y-124243750D03*
X283270000Y-124893750D03*
X283270000Y-125543750D03*
X283270000Y-126193750D03*
X283270000Y-126843750D03*
X283270000Y-127493750D03*
X283270000Y-128143750D03*
X283270000Y-128793750D03*
X283270000Y-129443750D03*
X283270000Y-130093750D03*
X283270000Y-130743750D03*
X290470000Y-130743750D03*
X290470000Y-130093750D03*
X290470000Y-129443750D03*
X290470000Y-128793750D03*
X290470000Y-128143750D03*
X290470000Y-127493750D03*
X290470000Y-126843750D03*
X290470000Y-126193750D03*
X290470000Y-125543750D03*
X290470000Y-124893750D03*
X290470000Y-124243750D03*
X290470000Y-123593750D03*
%TD*%
%TO.C,AM0*%
X156070000Y-123593750D03*
X156070000Y-124243750D03*
X156070000Y-124893750D03*
X156070000Y-125543750D03*
X156070000Y-126193750D03*
X156070000Y-126843750D03*
X156070000Y-127493750D03*
X156070000Y-128143750D03*
X156070000Y-128793750D03*
X156070000Y-129443750D03*
X156070000Y-130093750D03*
X156070000Y-130743750D03*
X148870000Y-130743750D03*
X148870000Y-130093750D03*
X148870000Y-129443750D03*
X148870000Y-128793750D03*
X148870000Y-128143750D03*
X148870000Y-127493750D03*
X148870000Y-126843750D03*
X148870000Y-126193750D03*
X148870000Y-125543750D03*
X148870000Y-124893750D03*
X148870000Y-124243750D03*
X148870000Y-123593750D03*
%TD*%
D10*
%TO.C,U75*%
X222820000Y-174400000D03*
X222820000Y-176300000D03*
X224695000Y-175350000D03*
%TD*%
%TO.C,U29*%
X248507500Y-89625000D03*
X246632500Y-90575000D03*
X246632500Y-88675000D03*
%TD*%
%TO.C,U77*%
X260920000Y-174400000D03*
X260920000Y-176300000D03*
X262795000Y-175350000D03*
%TD*%
%TO.C,U42*%
X308545000Y-155350000D03*
X308545000Y-157250000D03*
X310420000Y-156300000D03*
%TD*%
%TO.C,U54*%
X341882500Y-136300000D03*
X341882500Y-138200000D03*
X343757500Y-137250000D03*
%TD*%
M02*
